# xmcd
#
# Track frame offsets:
#	150
#	21798
#	35196
#	75069
#	90792
#	104565
#	120963
#	140286
#	153909
#	165807
#	179955
#	218703
#	247026
#	264474
#	291897
#	305145
#	316818
#	334716
#
# Disc length: 4631 seconds
#
# Revision: 0
# Processed by: cddbd v1.5.2PL0 Copyright (c) Steve Scherf et al.
# Submitted via: audiograbber 1.83.01
#
DISCID=eb121512
DTITLE=Taj Mahal - The Essential  Disk 1
DYEAR=2005
DGENRE=Blues
TTITLE0=Leaving Trunk
TTITLE1=Statesboro Blues
TTITLE2=The Celebrated Walkin' Blues
TTITLE3=She Caught the Katy (And Left Me a Mule to Ride)
TTITLE4=Corinna
TTITLE5=Going Up to the Country, Paint My Mailbox Blue
TTITLE6=Take a Giant Step
TTITLE7=Six Days on the Road
TTITLE8=Country Blues #1
TTITLE9=Fishin' Blues
TTITLE10=Ain't Gwine Whistle Dixie (Anymo') [Live]
TTITLE11=You're Gonna Need Somebody on Your Bond [Live]
TTITLE12=Happy to Be Just Like I Am
TTITLE13=West Indian Revelation
TTITLE14=Texas Woman Blues
TTITLE15=Cakewalk into Town
TTITLE16=Frankie and Albert
TTITLE17=Railroad Bill
EXTD=
EXTT0=
EXTT1=
EXTT2=
EXTT3=
EXTT4=
EXTT5=
EXTT6=
EXTT7=
EXTT8=
EXTT9=
EXTT10=
EXTT11=
EXTT12=
EXTT13=
EXTT14=
EXTT15=
EXTT16=
EXTT17=
PLAYORDER=
